<?xml version="1.0" encoding="utf-8"?>
<!-- Generator: Adobe Illustrator 27.1.1, SVG Export Plug-In . SVG Version: 6.00 Build 0)  -->
<svg version="1.1" id="Layer_1" xmlns="http://www.w3.org/2000/svg" xmlns:xlink="http://www.w3.org/1999/xlink" x="0px" y="0px"
	 viewBox="0 0 955.28 98.98" style="enable-background:new 0 0 955.28 98.98;" xml:space="preserve">
<style type="text/css">
	.st0{fill:#035B98;}
	.st1{fill-rule:evenodd;clip-rule:evenodd;fill:#035B98;}
</style>
<polygon class="st0" points="103.13,79.99 103.13,16.84 120.62,16.84 120.62,79.99 "/>
<polygon class="st0" points="129.8,79.99 129.8,16.84 177.9,16.84 177.9,29.08 147.29,29.08 147.29,42.12 175.45,42.12 
	175.45,54.36 147.29,54.36 147.29,67.74 177.9,67.74 177.9,79.99 "/>
<polygon class="st0" points="187.7,79.99 187.7,16.84 235.79,16.84 235.79,29.08 205.19,29.08 205.19,42.12 233.34,42.12 
	233.34,54.36 205.19,54.36 205.19,67.74 235.79,67.74 235.79,79.99 "/>
<polygon class="st0" points="245.58,79.99 245.58,16.84 293.69,16.84 293.69,29.08 263.09,29.08 263.09,42.12 291.24,42.12 
	291.24,54.36 263.09,54.36 263.09,67.74 293.69,67.74 293.69,79.99 "/>
<path class="st0" d="M47.03,17.55c2.79-2.17,6.3-0.37,8.64,1.63c2.46,1.88,5.02,4.01,7.26,6.18l0.41,0.23
	c6.22,5.77,12,12.18,16.74,18.97c0.77,1.18,1.45,2.52,1.02,4.08c-1.58,3.96-4.8,7.11-7.61,10.56C67.41,65.76,61,72.09,53.81,77.15
	c-1.45,1.03-3.41,1.98-5.15,1.16c-5.29-2.77-9.75-7.3-14.37-11.43c-5.37-4.98-10.76-10.77-14.82-16.83c-0.6-0.85-0.77-1.9-0.76-3.02
	c0.52-2.09,1.96-3.82,3.31-5.58c4.81-6.13,10.7-11.94,16.64-17.24c0.14-0.14,0.39-0.43,0.61-0.56
	C41.82,21.43,44.35,19.47,47.03,17.55L47.03,17.55z M55.2,11.18L52.05,6.7c-0.39-0.24-0.87-0.63-1.3-0.74
	c-0.93-0.4-1.94,0.08-2.7,0.66l-5.71,7.44c-9.16,11.35-20.01,21.95-31.85,30.07c-0.94,0.73-2.33,1.44-2.62,2.65
	c-0.31,1.08,0.25,1.98,0.93,2.65c9.48,6.53,18.54,14.28,26.61,23.12c1.43,1.5,2.59,3,3.99,4.41c2.36,3.14,5.13,6.3,7.3,9.67
	c0.68,0.71,0.8,1.88,1.86,2.23c0.83,0.29,1.86,0.48,2.65,0L52,88.08c9.81-13.89,22.25-26.37,36.14-36.44
	c1.39-1.24,4.05-1.71,4.09-4.01c-0.1-1.06-0.72-2.11-1.63-2.69l-0.23-0.04c-7.15-4.86-13.81-10.37-20.09-16.61l-6.94-7.25
	C60.53,17.92,57.8,14.47,55.2,11.18L55.2,11.18z M48.05,19.26c2.85-1.94,5.41,0.77,7.62,2.32c8.54,6.88,16.6,14.74,22.74,23.63
	c0.78,1.15,1.12,2.93,0.43,4.23c-1.59,2.66-3.74,5.08-5.78,7.54v0.13c-5.08,5.41-10.44,10.96-16.24,15.54
	c-2.83,1.72-5.42,5.48-9.07,3.15c-8.29-6.06-16.23-13.6-22.96-21.68c-1.14-1.78-2.92-3.23-3.72-5.25c-1.11-2.73,1.33-4.69,2.73-6.74
	C30.68,33.67,39.2,25.38,48.05,19.26L48.05,19.26z M49.85,24.84l-0.77,2.48l-3.88,11.1c0.97,0.1,2.17,0,3.13,0.1v0.09l-0.57,12.56
	l0.1,0.13c1.24,0.12,2.79,0.18,4.05-0.03v-0.2L51.4,38.89l0.08-0.41l3.41-0.06c-1.7-4.49-3.35-9.03-4.94-13.58L49.85,24.84
	L49.85,24.84z M36.66,42.23c-2.17,1.09-5.37,2.74-5.02,5.72c0.47,1.63,2.23,2.68,3.62,3.35c7.71,3.4,17.94,3.51,26.08,0.98
	c2.01-0.77,4.71-1.9,5.08-4.36c-0.02-2.03-2.17-3.31-3.72-4.09v-0.1c0.54-0.21,1.16-0.4,1.72-0.46v-0.05c-2.73-0.49-5.36-1.2-8-1.9
	c0.51,1.16,0.88,2.38,1.3,3.58c0.79-0.25,1.61-0.45,2.46-0.56c1.39,0.54,3.39,1.32,3.58,3.06c0.15,1.63-1.63,2.42-2.75,3.08
	c-5.97,2.17-12.69,2.38-18.91,0.73c-1.72-0.54-4.2-1.24-4.42-3.43c1.22-2.88,4.38-3.48,7.01-4.18c-1.35-0.87-2.73-1.65-4.05-2.62
	C39.24,41.05,37.94,41.67,36.66,42.23L36.66,42.23z M47.69,54.75c-0.23,4.46-0.29,8.59-0.62,13.06c1.76,0.16,3.76,0.31,5.64,0.04
	l-0.56-12.46l-0.1-0.59C50.61,54.85,49.26,54.91,47.69,54.75L47.69,54.75z"/>
<g>
	<path class="st1" d="M64.14,80.25c-1.56,0-2.95,1.08-2.95,2.93c0,1.86,1.39,2.94,2.95,2.94c1.55,0,2.94-1.08,2.94-2.94
		C67.08,81.33,65.69,80.25,64.14,80.25z M64.14,85.45L64.14,85.45c-1.16,0-2.1-0.9-2.1-2.26c0-1.35,0.94-2.25,2.1-2.25
		c1.14,0,2.1,0.9,2.1,2.25C66.25,84.54,65.28,85.45,64.14,85.45z M65.46,82.56c0-0.72-0.48-0.95-1.3-0.95h-1.18v3.16h0.68v-1.33
		h0.32l0.73,1.33h0.81l-0.82-1.39C65.12,83.35,65.46,83.14,65.46,82.56z M64.26,82.9h-0.6v-0.76h0.48c0.26,0,0.61,0.03,0.61,0.35
		C64.74,82.84,64.56,82.9,64.26,82.9z"/>
</g>
<g>
	<g>
		<path class="st0" d="M340.23,29.94h-16.16V16.9h49.52v13.03h-16.06V79.5h-17.3V29.94z"/>
		<path class="st0" d="M415.02,65.74c0,3.91,0.18,10.59,0.67,13.77H401.1c-0.43-1.21-0.7-3.75-0.86-5.07
			c-2.78,3.98-7.4,6.02-13.49,6.02c-10.99,0-15.93-6.87-15.93-14.83c0-8.45,5.32-15.98,22.68-15.98c1.22,0,3.15,0,5.21,0v-3.42
			c0-3.4-1.12-5.47-4.96-5.47c-4.18,0-5.12,2.29-5.42,5.37h-15.74c0.46-7.63,5.29-15.59,21.54-15.59c14.31,0,20.9,5.16,20.9,16.4
			v18.8H415.02z M399,58.34c-1.26,0-2.46,0-4.21,0c-6.16,0-7.46,2.85-7.46,5.71c0,2.8,1.61,4.97,5.12,4.97
			c5.53,0,6.54-3.8,6.54-9.45L399,58.34L399,58.34z"/>
		<path class="st0" d="M425.1,13.48h16.74V25.6H425.1V13.48z M425.1,31.54h16.74V79.5H425.1V31.54z"/>
		<path class="st0" d="M468.45,76.21V97H451.8V45.39c0-6.4,0.06-10.67-0.09-13.84h16.38c0.15,1.4,0.27,3.59,0.37,5.43
			c1.55-2.66,5.07-6.44,12.99-6.44c9.75,0,17.79,7.37,17.79,24.26c0,17.03-9.52,25.66-20.07,25.66
			C473.73,80.46,470.23,78.89,468.45,76.21z M482.15,55.33c0-8.49-2.52-12.64-7.15-12.64c-5.5,0-7.15,2.82-7.15,12.91
			c0,9.16,1.62,12.98,6.81,12.98C479.72,68.58,482.15,64.53,482.15,55.33z"/>
		<path class="st0" d="M521.87,58.97c-0.03,5.45,1.73,10.04,6.99,10.04c4.22,0,5.51-2.5,6.15-4.67h16.05
			c-1.92,7.26-7.2,16.12-22.63,16.12c-17.2,0-23.46-11.28-23.46-24.89c0-12.15,6.14-25.03,23.94-25.03
			c17.47,0,22.73,11.95,22.73,24.44c0,0.47-0.06,3.46-0.12,4h-29.65V58.97z M535.07,49.71c-0.12-4.53-1.46-8.25-6.4-8.25
			c-5.14,0-6.56,4-6.68,8.25H535.07z"/>
		<path class="st0" d="M559.23,13.48h16.74V25.6h-16.74V13.48z M559.23,31.54h16.74V79.5h-16.74V31.54z"/>
		<path class="st0" d="M621.28,60.37c0.66,5.09,3.63,8.2,9.32,8.2c5.76,0,7.58-2.41,7.58-5.83c0-4.53-2.99-6.56-11.52-8.91
			c-15.58-4.22-20.26-10.16-20.26-18.92c0-12.62,10.27-19.12,23.37-19.12c15.49,0,23.52,7.45,24.22,19.03h-16.32
			c-0.51-3.92-2.3-7.14-7.83-7.14c-4.25,0-6.55,1.96-6.55,5.31c0,3.88,2.79,5,11.16,7.38c16.51,4.7,21.1,10.96,21.1,20.46
			c0,11.92-8.86,19.78-25.45,19.78c-15.48,0-24.59-7.76-25.29-20.25L621.28,60.37L621.28,60.37z"/>
		<path class="st0" d="M678.31,58.97c-0.03,5.45,1.73,10.04,6.99,10.04c4.22,0,5.51-2.5,6.15-4.67h16.05
			c-1.92,7.26-7.2,16.12-22.63,16.12c-17.2,0-23.46-11.28-23.46-24.89c0-12.15,6.14-25.03,23.94-25.03
			c17.47,0,22.73,11.95,22.73,24.44c0,0.47-0.06,3.46-0.12,4h-29.65V58.97z M691.51,49.71c-0.12-4.53-1.46-8.25-6.4-8.25
			c-5.14,0-6.56,4-6.68,8.25H691.51z"/>
		<path class="st0" d="M759.56,62.01c-1.28,10.47-7.51,18.44-22.47,18.44c-16.71,0-22.92-10.11-22.92-24.7
			c0-16.26,9.2-25.23,23.74-25.23c17.47,0,21.5,11.7,21.68,18.69h-16.23c-0.21-4.12-1.46-7.45-5.53-7.45
			c-4.62,0-6.51,4.19-6.51,13.51c0,10.53,2.24,14.04,6.3,14.04c4.16,0,5.14-3.16,5.86-7.3H759.56z"/>
		<path class="st0" d="M763.55,31.54h6.23V19.19h16.62v12.36h7.71v11.74h-7.71v21.07c0,2.98,0.73,4.16,4.38,4.16
			c0.94,0,1.18,0,2.39-0.15v10.65c-2.85,0.92-7.21,1.11-9.4,1.11c-10.94,0-13.99-4.09-13.99-13.5V43.28h-6.23V31.54z"/>
		<path class="st0" d="M800.51,13.48h16.74V25.6h-16.74V13.48z M800.51,31.54h16.74V79.5h-16.74V31.54z"/>
		<path class="st0" d="M873.54,54.9c0,13.54-6.61,25.62-24.54,25.62c-18,0-24.08-12.41-24.08-25.34c0-10.58,5.65-24.64,24.69-24.64
			C867.97,30.53,873.54,43.54,873.54,54.9z M842.07,55.03c0,9.87,2.36,14,7.39,14c4.67,0,7-4.26,7-13.95
			c0-9.27-2.15-13.01-7.27-13.01C844.52,42.08,842.07,46.04,842.07,55.03z"/>
		<path class="st0" d="M881.34,46.55c0-9.91-0.06-12.84-0.15-15h16.38c0.18,0.85,0.39,3.6,0.42,5.37c2.08-3.34,6.4-6.38,13.08-6.38
			c9.89,0,14.8,6.67,14.8,17.09V79.5h-16.74V50.4c0-4.55-1-7.27-5.19-7.27c-3.84,0-5.85,2.07-5.85,8.74V79.5h-16.74V46.55H881.34z"
			/>
	</g>
</g>
</svg>
