<?xml version="1.0" encoding="utf-8"?>
<!-- Generator: Adobe Illustrator 27.1.1, SVG Export Plug-In . SVG Version: 6.00 Build 0)  -->
<svg version="1.1" id="圖層_1" xmlns="http://www.w3.org/2000/svg" xmlns:xlink="http://www.w3.org/1999/xlink" x="0px" y="0px"
	 viewBox="0 0 689.29 97.22" style="enable-background:new 0 0 689.29 97.22;" xml:space="preserve">
<style type="text/css">
	.st0{fill:#666666;}
	.st1{fill:#F9BD2E;}
	.st2{fill:#08AA53;}
	.st3{fill:#176FB7;}
	.st4{fill:#EF0019;}
</style>
<g>
	<path class="st0" d="M235.61,82.12l0.58-3.91c0.62,0.59,1.32,1.04,2.11,1.34c0.79,0.3,1.6,0.45,2.45,0.45
		c0.5,0,0.94-0.04,1.32-0.13c0.38-0.09,0.71-0.21,0.98-0.37c0.27-0.16,0.48-0.35,0.64-0.56c0.15-0.22,0.25-0.45,0.29-0.7
		c0.05-0.34,0-0.65-0.16-0.92c-0.16-0.27-0.39-0.52-0.69-0.75c-0.3-0.23-0.67-0.45-1.11-0.66c-0.43-0.21-0.9-0.43-1.41-0.65
		c-1.28-0.57-2.2-1.27-2.75-2.09c-0.55-0.82-0.74-1.82-0.57-2.98c0.14-0.91,0.43-1.7,0.9-2.35c0.46-0.66,1.04-1.2,1.74-1.62
		c0.69-0.42,1.47-0.74,2.33-0.93c0.86-0.2,1.75-0.3,2.68-0.3c0.91,0,1.71,0.05,2.4,0.17c0.69,0.11,1.31,0.28,1.87,0.51l-0.54,3.65
		c-0.26-0.2-0.56-0.38-0.88-0.54c-0.32-0.15-0.66-0.28-1.01-0.38c-0.35-0.1-0.71-0.18-1.06-0.23c-0.36-0.05-0.7-0.07-1.02-0.07
		c-0.45,0-0.86,0.04-1.24,0.13c-0.38,0.08-0.71,0.21-0.98,0.36c-0.28,0.15-0.5,0.34-0.67,0.55c-0.17,0.22-0.27,0.46-0.31,0.73
		c-0.04,0.29-0.01,0.56,0.11,0.79c0.12,0.23,0.31,0.45,0.56,0.66s0.57,0.41,0.95,0.61c0.38,0.2,0.81,0.41,1.29,0.62
		c0.66,0.29,1.24,0.61,1.75,0.94s0.93,0.7,1.27,1.12c0.34,0.42,0.57,0.89,0.71,1.42c0.13,0.53,0.15,1.15,0.04,1.86
		c-0.14,0.98-0.45,1.8-0.92,2.46c-0.47,0.67-1.05,1.2-1.75,1.61c-0.7,0.41-1.48,0.71-2.35,0.89c-0.87,0.18-1.77,0.27-2.71,0.27
		c-0.96,0-1.86-0.08-2.71-0.24C236.92,82.69,236.2,82.44,235.61,82.12z"/>
	<path class="st0" d="M253.69,82.79h-3.86l1.85-12.51h3.86L253.69,82.79z M253.93,68.3c-0.65,0-1.16-0.19-1.52-0.58
		c-0.36-0.39-0.5-0.86-0.41-1.42c0.09-0.58,0.36-1.05,0.83-1.42c0.47-0.37,1.03-0.55,1.68-0.55c0.66,0,1.17,0.18,1.53,0.55
		c0.36,0.37,0.49,0.84,0.41,1.42c-0.09,0.59-0.36,1.07-0.83,1.44C255.15,68.11,254.59,68.3,253.93,68.3z"/>
	<path class="st0" d="M268.88,82.79h-3.85l1.03-6.95c0.29-1.94-0.26-2.91-1.65-2.91c-0.67,0-1.26,0.26-1.76,0.77
		c-0.51,0.51-0.82,1.17-0.94,1.96l-1.06,7.14h-3.86l1.85-12.51h3.86l-0.29,1.98h0.05c1.15-1.52,2.6-2.29,4.36-2.29
		c2.77,0,3.9,1.72,3.39,5.16L268.88,82.79z"/>
	<path class="st0" d="M282.33,82.79h-3.65l0.27-1.8h-0.05c-1.05,1.4-2.39,2.1-4.04,2.1c-1.21,0-2.12-0.34-2.71-1.03
		c-0.59-0.69-0.81-1.61-0.64-2.75c0.36-2.43,2.01-3.83,4.94-4.2l3.46-0.45c0.2-1.37-0.44-2.05-1.92-2.05
		c-1.49,0-2.97,0.44-4.45,1.33l0.43-2.91c0.58-0.28,1.35-0.52,2.31-0.73c0.96-0.21,1.83-0.32,2.59-0.32c3.57,0,5.09,1.78,4.56,5.34
		L282.33,82.79z M279.45,77.71l0.12-0.84l-2.32,0.29c-1.28,0.16-1.99,0.73-2.13,1.7c-0.06,0.44,0.03,0.8,0.3,1.08
		c0.26,0.28,0.66,0.42,1.18,0.42c0.72,0,1.35-0.25,1.88-0.75S279.33,78.47,279.45,77.71z"/>
	<path class="st0" d="M291.96,82.12l0.58-3.91c0.62,0.59,1.32,1.04,2.11,1.34c0.79,0.3,1.6,0.45,2.45,0.45
		c0.5,0,0.94-0.04,1.32-0.13c0.38-0.09,0.71-0.21,0.98-0.37c0.27-0.16,0.48-0.35,0.64-0.56c0.15-0.22,0.25-0.45,0.29-0.7
		c0.05-0.34,0-0.65-0.16-0.92c-0.16-0.27-0.39-0.52-0.69-0.75c-0.3-0.23-0.67-0.45-1.11-0.66c-0.43-0.21-0.9-0.43-1.41-0.65
		c-1.28-0.57-2.2-1.27-2.75-2.09c-0.55-0.82-0.74-1.82-0.57-2.98c0.14-0.91,0.43-1.7,0.9-2.35c0.46-0.66,1.04-1.2,1.74-1.62
		c0.69-0.42,1.47-0.74,2.33-0.93c0.86-0.2,1.75-0.3,2.68-0.3c0.91,0,1.71,0.05,2.4,0.17c0.69,0.11,1.31,0.28,1.87,0.51l-0.54,3.65
		c-0.26-0.2-0.56-0.38-0.88-0.54c-0.32-0.15-0.66-0.28-1.01-0.38c-0.35-0.1-0.71-0.18-1.06-0.23c-0.36-0.05-0.7-0.07-1.02-0.07
		c-0.45,0-0.86,0.04-1.24,0.13c-0.38,0.08-0.71,0.21-0.98,0.36c-0.28,0.15-0.5,0.34-0.67,0.55c-0.17,0.22-0.27,0.46-0.31,0.73
		c-0.04,0.29-0.01,0.56,0.11,0.79c0.12,0.23,0.31,0.45,0.56,0.66s0.57,0.41,0.95,0.61c0.38,0.2,0.81,0.41,1.29,0.62
		c0.66,0.29,1.24,0.61,1.75,0.94s0.93,0.7,1.27,1.12c0.34,0.42,0.57,0.89,0.71,1.42c0.13,0.53,0.15,1.15,0.04,1.86
		c-0.14,0.98-0.45,1.8-0.92,2.46c-0.47,0.67-1.05,1.2-1.75,1.61c-0.7,0.41-1.48,0.71-2.35,0.89c-0.87,0.18-1.77,0.27-2.71,0.27
		c-0.96,0-1.86-0.08-2.71-0.24C293.26,82.69,292.54,82.44,291.96,82.12z"/>
	<path class="st0" d="M326.12,82.79h-3.85l1.06-7.14c0.27-1.82-0.26-2.72-1.6-2.72c-0.64,0-1.19,0.27-1.67,0.82
		c-0.48,0.55-0.78,1.23-0.9,2.04l-1.04,7h-3.86l1.07-7.21c0.26-1.77-0.26-2.65-1.57-2.65c-0.66,0-1.23,0.26-1.7,0.78
		c-0.47,0.52-0.78,1.23-0.91,2.13l-1.03,6.95h-3.86l1.85-12.51h3.86l-0.29,1.96h0.05c0.5-0.67,1.14-1.21,1.92-1.63
		c0.78-0.42,1.6-0.63,2.46-0.63c1.77,0,2.86,0.78,3.28,2.33c1.18-1.56,2.7-2.33,4.55-2.33c2.72,0,3.83,1.68,3.34,5.04L326.12,82.79z
		"/>
	<path class="st0" d="M339.56,82.79h-3.65l0.27-1.8h-0.05c-1.05,1.4-2.39,2.1-4.04,2.1c-1.21,0-2.12-0.34-2.71-1.03
		c-0.59-0.69-0.81-1.61-0.64-2.75c0.36-2.43,2.01-3.83,4.94-4.2l3.46-0.45c0.2-1.37-0.44-2.05-1.92-2.05
		c-1.49,0-2.97,0.44-4.45,1.33l0.43-2.91c0.58-0.28,1.35-0.52,2.32-0.73c0.96-0.21,1.83-0.32,2.59-0.32c3.57,0,5.09,1.78,4.56,5.34
		L339.56,82.79z M336.68,77.71l0.12-0.84l-2.32,0.29c-1.28,0.16-1.99,0.73-2.13,1.7c-0.07,0.44,0.03,0.8,0.3,1.08
		c0.26,0.28,0.66,0.42,1.18,0.42c0.72,0,1.35-0.25,1.88-0.75S336.57,78.47,336.68,77.71z"/>
	<path class="st0" d="M352.01,73.76c-0.43-0.25-0.95-0.38-1.57-0.38c-0.84,0-1.54,0.31-2.1,0.92c-0.56,0.62-0.92,1.45-1.08,2.51
		l-0.88,5.98h-3.86l1.85-12.51h3.86l-0.34,2.32h0.05c0.86-1.7,2.09-2.54,3.68-2.54c0.41,0,0.72,0.05,0.93,0.15L352.01,73.76z"/>
	<path class="st0" d="M360.51,82.64c-0.62,0.3-1.5,0.45-2.64,0.45c-2.72,0-3.87-1.41-3.46-4.24l0.85-5.73h-2.03l0.42-2.85h2.03
		l0.4-2.7l4.01-1.1l-0.56,3.8h2.81l-0.42,2.85h-2.81l-0.75,5.06c-0.19,1.3,0.23,1.96,1.26,1.96c0.41,0,0.84-0.12,1.31-0.35
		L360.51,82.64z"/>
	<path class="st0" d="M382.6,82.17c-1.37,0.62-3.09,0.93-5.15,0.93c-2.69,0-4.69-0.79-5.99-2.37c-1.31-1.58-1.76-3.69-1.37-6.32
		c0.42-2.8,1.62-5.07,3.61-6.82c1.99-1.74,4.36-2.61,7.13-2.61c1.71,0,3.12,0.21,4.23,0.65l-0.56,3.8c-1.07-0.7-2.35-1.05-3.85-1.05
		c-1.65,0-3.05,0.52-4.21,1.55c-1.16,1.04-1.88,2.44-2.14,4.2c-0.25,1.7,0.03,3.04,0.83,4.05c0.8,1.01,2.01,1.51,3.63,1.51
		c1.54,0,3-0.37,4.39-1.12L382.6,82.17z"/>
	<path class="st0" d="M390.86,83.09c-2.09,0-3.64-0.58-4.66-1.75c-1.02-1.17-1.38-2.75-1.08-4.76c0.31-2.07,1.17-3.69,2.58-4.86
		c1.41-1.17,3.17-1.75,5.28-1.75c2.08,0,3.62,0.58,4.63,1.75s1.37,2.71,1.09,4.64c-0.31,2.08-1.16,3.72-2.56,4.92
		C394.73,82.49,392.98,83.09,390.86,83.09z M392.46,72.93c-0.91,0-1.67,0.31-2.27,0.94c-0.6,0.63-0.98,1.51-1.15,2.66
		c-0.36,2.4,0.43,3.6,2.37,3.6c1.85,0,2.96-1.23,3.32-3.7C395.09,74.1,394.33,72.93,392.46,72.93z"/>
	<path class="st0" d="M419.99,82.79h-3.85l1.06-7.14c0.27-1.82-0.26-2.72-1.6-2.72c-0.64,0-1.19,0.27-1.67,0.82
		c-0.48,0.55-0.78,1.23-0.9,2.04l-1.04,7h-3.86l1.07-7.21c0.26-1.77-0.26-2.65-1.57-2.65c-0.66,0-1.23,0.26-1.7,0.78
		c-0.47,0.52-0.78,1.23-0.91,2.13l-1.03,6.95h-3.86l1.85-12.51h3.86l-0.29,1.96h0.05c0.5-0.67,1.14-1.21,1.92-1.63
		s1.6-0.63,2.46-0.63c1.77,0,2.86,0.78,3.29,2.33c1.18-1.56,2.7-2.33,4.55-2.33c2.72,0,3.83,1.68,3.34,5.04L419.99,82.79z"/>
	<path class="st0" d="M427.07,81.33h-0.05l-1.07,7.21h-3.86l2.71-18.27h3.86l-0.28,1.88h0.05c1.17-1.46,2.62-2.19,4.34-2.19
		c1.62,0,2.79,0.56,3.51,1.67c0.72,1.11,0.94,2.63,0.65,4.54c-0.31,2.08-1.07,3.76-2.29,5.02c-1.22,1.26-2.68,1.89-4.39,1.89
		C428.75,83.09,427.69,82.51,427.07,81.33z M427.72,76.2l-0.15,1c-0.13,0.86,0,1.57,0.37,2.11c0.38,0.55,0.93,0.82,1.67,0.82
		c0.88,0,1.61-0.34,2.2-1.02c0.58-0.68,0.97-1.64,1.16-2.89c0.33-2.2-0.37-3.3-2.08-3.3c-0.79,0-1.48,0.3-2.07,0.9
		C428.23,74.42,427.86,75.22,427.72,76.2z"/>
	<path class="st0" d="M450.31,82.79h-3.85l0.28-1.91h-0.06c-1.17,1.47-2.55,2.21-4.15,2.21c-2.9,0-4.09-1.75-3.57-5.27l1.12-7.55
		h3.85l-1.07,7.21c-0.26,1.77,0.31,2.65,1.71,2.65c0.69,0,1.28-0.24,1.77-0.73c0.49-0.48,0.79-1.14,0.92-1.97l1.06-7.16h3.85
		L450.31,82.79z"/>
	<path class="st0" d="M460.92,82.64c-0.61,0.3-1.5,0.45-2.64,0.45c-2.72,0-3.87-1.41-3.45-4.24l0.85-5.73h-2.03l0.42-2.85h2.03
		l0.4-2.7l4.01-1.1l-0.56,3.8h2.81l-0.42,2.85h-2.81l-0.75,5.06c-0.19,1.3,0.23,1.96,1.26,1.96c0.41,0,0.84-0.12,1.31-0.35
		L460.92,82.64z"/>
	<path class="st0" d="M466.98,82.79h-3.86l1.85-12.51h3.86L466.98,82.79z M467.22,68.3c-0.65,0-1.16-0.19-1.51-0.58
		c-0.36-0.39-0.5-0.86-0.41-1.42c0.09-0.58,0.36-1.05,0.83-1.42c0.47-0.37,1.03-0.55,1.68-0.55c0.66,0,1.17,0.18,1.53,0.55
		c0.36,0.37,0.49,0.84,0.41,1.42c-0.09,0.59-0.36,1.07-0.83,1.44C468.44,68.11,467.88,68.3,467.22,68.3z"/>
	<path class="st0" d="M482.17,82.79h-3.85l1.03-6.95c0.29-1.94-0.26-2.91-1.65-2.91c-0.67,0-1.26,0.26-1.76,0.77
		c-0.51,0.51-0.82,1.17-0.94,1.96l-1.06,7.14h-3.86l1.85-12.51h3.86l-0.29,1.98h0.05c1.15-1.52,2.6-2.29,4.36-2.29
		c2.77,0,3.9,1.72,3.39,5.16L482.17,82.79z"/>
	<path class="st0" d="M497.7,81.36c-0.34,2.32-1.28,4.12-2.82,5.39c-1.53,1.28-3.57,1.91-6.12,1.91c-1.69,0-2.99-0.24-3.9-0.72
		l0.48-3.25c1.18,0.75,2.42,1.12,3.73,1.12c1.3,0,2.37-0.34,3.18-1.03c0.82-0.69,1.32-1.62,1.49-2.8l0.15-0.99h-0.05
		c-1.09,1.4-2.49,2.1-4.21,2.1c-1.6,0-2.78-0.56-3.55-1.69c-0.77-1.12-1.02-2.63-0.74-4.52c0.31-2.12,1.08-3.8,2.31-5.05
		c1.23-1.25,2.69-1.87,4.39-1.87c1.52,0,2.58,0.59,3.16,1.76h0.05l0.21-1.45h3.86L497.7,81.36z M494.57,76.78l0.15-0.99
		c0.12-0.79-0.02-1.46-0.4-2.02s-0.95-0.84-1.7-0.84c-0.86,0-1.58,0.33-2.16,1c-0.59,0.67-0.97,1.61-1.15,2.82
		c-0.15,1.04-0.04,1.87,0.33,2.48c0.37,0.61,0.96,0.91,1.77,0.91c0.8,0,1.49-0.31,2.07-0.92C494.05,78.6,494.42,77.79,494.57,76.78z
		"/>
	<path class="st0" d="M516.01,65.26l-0.45,3.06h-1.47l-1.69,11.41h1.47l-0.45,3.05h-6.88l0.45-3.05h1.47l1.69-11.41h-1.47l0.45-3.06
		H516.01z"/>
	<path class="st0" d="M527.85,82.79H524l1.03-6.95c0.29-1.94-0.26-2.91-1.65-2.91c-0.67,0-1.26,0.26-1.76,0.77s-0.82,1.17-0.94,1.96
		l-1.06,7.14h-3.86l1.85-12.51h3.86l-0.29,1.98h0.05c1.15-1.52,2.6-2.29,4.36-2.29c2.77,0,3.9,1.72,3.39,5.16L527.85,82.79z"/>
	<path class="st0" d="M530.28,82.46l0.46-3.13c0.58,0.38,1.17,0.67,1.77,0.86s1.19,0.28,1.75,0.28c0.68,0,1.24-0.09,1.66-0.28
		c0.42-0.19,0.66-0.47,0.72-0.86c0.04-0.24-0.02-0.45-0.18-0.61c-0.15-0.16-0.36-0.31-0.63-0.43c-0.26-0.12-0.55-0.23-0.87-0.33
		c-0.32-0.1-0.63-0.21-0.92-0.33c-0.47-0.19-0.88-0.39-1.22-0.6c-0.35-0.22-0.63-0.47-0.84-0.75c-0.21-0.28-0.36-0.62-0.44-0.99
		c-0.08-0.38-0.08-0.82,0-1.33c0.1-0.7,0.34-1.3,0.73-1.81c0.38-0.51,0.85-0.92,1.41-1.24c0.56-0.32,1.17-0.56,1.85-0.71
		c0.68-0.15,1.37-0.23,2.08-0.23c0.55,0,1.11,0.04,1.67,0.13c0.56,0.09,1.1,0.21,1.63,0.37l-0.44,2.98
		c-0.45-0.29-0.94-0.5-1.47-0.64c-0.54-0.14-1.08-0.21-1.61-0.21c-0.25,0-0.49,0.02-0.72,0.07c-0.23,0.04-0.44,0.11-0.62,0.2
		c-0.18,0.09-0.33,0.2-0.45,0.33c-0.12,0.13-0.19,0.29-0.21,0.46c-0.03,0.23,0.01,0.42,0.13,0.59c0.12,0.16,0.29,0.3,0.51,0.42
		c0.22,0.12,0.47,0.22,0.74,0.32s0.55,0.19,0.82,0.29c0.49,0.18,0.92,0.38,1.31,0.59c0.38,0.21,0.7,0.46,0.96,0.75
		c0.25,0.29,0.43,0.62,0.54,1c0.1,0.38,0.11,0.84,0.04,1.37c-0.11,0.74-0.37,1.38-0.76,1.9c-0.4,0.53-0.89,0.95-1.47,1.28
		c-0.58,0.33-1.23,0.57-1.95,0.72c-0.72,0.15-1.45,0.23-2.2,0.23C532.63,83.09,531.39,82.88,530.28,82.46z"/>
	<path class="st0" d="M549.49,82.64c-0.62,0.3-1.5,0.45-2.64,0.45c-2.72,0-3.87-1.41-3.46-4.24l0.85-5.73h-2.03l0.42-2.85h2.03
		l0.4-2.7l4.01-1.1l-0.56,3.8h2.81l-0.42,2.85h-2.81l-0.75,5.06c-0.19,1.3,0.23,1.96,1.26,1.96c0.41,0,0.84-0.12,1.31-0.35
		L549.49,82.64z"/>
	<path class="st0" d="M555.54,82.79h-3.86l1.85-12.51h3.86L555.54,82.79z M555.78,68.3c-0.65,0-1.16-0.19-1.51-0.58
		c-0.36-0.39-0.5-0.86-0.41-1.42c0.09-0.58,0.36-1.05,0.83-1.42c0.47-0.37,1.03-0.55,1.68-0.55c0.66,0,1.17,0.18,1.53,0.55
		c0.36,0.37,0.49,0.84,0.41,1.42c-0.09,0.59-0.36,1.07-0.83,1.44C557.01,68.11,556.44,68.3,555.78,68.3z"/>
	<path class="st0" d="M566.1,82.64c-0.61,0.3-1.5,0.45-2.64,0.45c-2.72,0-3.87-1.41-3.45-4.24l0.85-5.73h-2.03l0.42-2.85h2.03
		l0.4-2.7l4.01-1.1l-0.56,3.8h2.81l-0.42,2.85h-2.81l-0.75,5.06c-0.19,1.3,0.23,1.96,1.26,1.96c0.41,0,0.84-0.12,1.31-0.35
		L566.1,82.64z"/>
	<path class="st0" d="M580.24,82.79h-3.85l0.28-1.91h-0.06c-1.17,1.47-2.55,2.21-4.15,2.21c-2.9,0-4.09-1.75-3.57-5.27l1.12-7.55
		h3.85l-1.07,7.21c-0.26,1.77,0.31,2.65,1.71,2.65c0.69,0,1.28-0.24,1.77-0.73c0.49-0.48,0.79-1.14,0.92-1.97l1.06-7.16h3.85
		L580.24,82.79z"/>
	<path class="st0" d="M590.85,82.64c-0.61,0.3-1.5,0.45-2.64,0.45c-2.72,0-3.87-1.41-3.45-4.24l0.85-5.73h-2.03l0.42-2.85h2.03
		l0.4-2.7l4.01-1.1l-0.56,3.8h2.81l-0.42,2.85h-2.81l-0.75,5.06c-0.19,1.3,0.23,1.96,1.26,1.96c0.41,0,0.84-0.12,1.31-0.35
		L590.85,82.64z"/>
	<path class="st0" d="M604.89,77.63h-8.16c-0.14,1.82,0.87,2.73,3.03,2.73c1.38,0,2.63-0.33,3.77-0.98l-0.41,2.79
		c-1.25,0.62-2.8,0.93-4.65,0.93c-2.02,0-3.51-0.56-4.46-1.68c-0.95-1.12-1.28-2.68-0.98-4.69c0.31-2.08,1.15-3.72,2.54-4.94
		c1.38-1.21,2.96-1.82,4.72-1.82c1.82,0,3.16,0.54,3.99,1.63c0.84,1.08,1.12,2.55,0.84,4.41L604.89,77.63z M601.66,75.26
		c0.27-1.79-0.33-2.69-1.78-2.69c-0.62,0-1.19,0.26-1.72,0.77c-0.53,0.51-0.9,1.15-1.11,1.92H601.66z"/>
	<path class="st0" d="M620.14,86.77h-3.15c-2.2-2.9-2.99-6.46-2.36-10.69c0.6-4.08,2.45-7.69,5.55-10.82h3.13
		c-2.95,3.28-4.72,6.88-5.3,10.82C617.42,80.01,618.13,83.58,620.14,86.77z"/>
	<path class="st0" d="M621.57,82.12l0.58-3.91c0.62,0.59,1.32,1.04,2.11,1.34c0.79,0.3,1.6,0.45,2.45,0.45
		c0.5,0,0.94-0.04,1.32-0.13c0.38-0.09,0.71-0.21,0.98-0.37c0.27-0.16,0.48-0.35,0.64-0.56c0.15-0.22,0.25-0.45,0.29-0.7
		c0.05-0.34,0-0.65-0.16-0.92c-0.16-0.27-0.39-0.52-0.69-0.75c-0.3-0.23-0.67-0.45-1.11-0.66c-0.43-0.21-0.9-0.43-1.41-0.65
		c-1.28-0.57-2.2-1.27-2.75-2.09c-0.55-0.82-0.74-1.82-0.57-2.98c0.13-0.91,0.43-1.7,0.9-2.35c0.46-0.66,1.04-1.2,1.74-1.62
		c0.69-0.42,1.47-0.74,2.33-0.93s1.75-0.3,2.68-0.3c0.91,0,1.71,0.05,2.4,0.17c0.69,0.11,1.31,0.28,1.88,0.51l-0.54,3.65
		c-0.26-0.2-0.56-0.38-0.88-0.54c-0.32-0.15-0.66-0.28-1.01-0.38c-0.35-0.1-0.71-0.18-1.06-0.23s-0.7-0.07-1.02-0.07
		c-0.45,0-0.86,0.04-1.24,0.13c-0.38,0.08-0.71,0.21-0.98,0.36c-0.28,0.15-0.5,0.34-0.67,0.55c-0.17,0.22-0.27,0.46-0.31,0.73
		c-0.04,0.29,0,0.56,0.12,0.79c0.12,0.23,0.31,0.45,0.56,0.66c0.25,0.21,0.57,0.41,0.95,0.61c0.38,0.2,0.81,0.41,1.29,0.62
		c0.66,0.29,1.24,0.61,1.75,0.94c0.51,0.33,0.93,0.7,1.27,1.12c0.34,0.42,0.57,0.89,0.71,1.42c0.13,0.53,0.15,1.15,0.04,1.86
		c-0.15,0.98-0.45,1.8-0.92,2.46c-0.47,0.67-1.05,1.2-1.75,1.61c-0.7,0.41-1.48,0.71-2.35,0.89c-0.87,0.18-1.77,0.27-2.71,0.27
		c-0.96,0-1.86-0.08-2.71-0.24C622.87,82.69,622.16,82.44,621.57,82.12z"/>
	<path class="st0" d="M635.54,82.12l0.58-3.91c0.62,0.59,1.32,1.04,2.11,1.34c0.79,0.3,1.6,0.45,2.45,0.45
		c0.5,0,0.94-0.04,1.32-0.13c0.38-0.09,0.71-0.21,0.98-0.37c0.27-0.16,0.48-0.35,0.64-0.56c0.15-0.22,0.25-0.45,0.29-0.7
		c0.05-0.34,0-0.65-0.16-0.92c-0.16-0.27-0.39-0.52-0.69-0.75c-0.3-0.23-0.67-0.45-1.11-0.66c-0.43-0.21-0.9-0.43-1.41-0.65
		c-1.28-0.57-2.2-1.27-2.75-2.09c-0.55-0.82-0.74-1.82-0.57-2.98c0.13-0.91,0.43-1.7,0.9-2.35c0.46-0.66,1.04-1.2,1.74-1.62
		c0.69-0.42,1.47-0.74,2.33-0.93s1.75-0.3,2.68-0.3c0.91,0,1.71,0.05,2.4,0.17c0.69,0.11,1.31,0.28,1.88,0.51l-0.54,3.65
		c-0.26-0.2-0.56-0.38-0.88-0.54c-0.32-0.15-0.66-0.28-1.01-0.38c-0.35-0.1-0.71-0.18-1.06-0.23s-0.7-0.07-1.02-0.07
		c-0.45,0-0.86,0.04-1.24,0.13c-0.38,0.08-0.71,0.21-0.98,0.36c-0.28,0.15-0.5,0.34-0.67,0.55c-0.17,0.22-0.27,0.46-0.31,0.73
		c-0.04,0.29,0,0.56,0.12,0.79c0.12,0.23,0.31,0.45,0.56,0.66c0.25,0.21,0.57,0.41,0.95,0.61c0.38,0.2,0.81,0.41,1.29,0.62
		c0.66,0.29,1.24,0.61,1.75,0.94c0.51,0.33,0.93,0.7,1.27,1.12c0.34,0.42,0.57,0.89,0.71,1.42c0.13,0.53,0.15,1.15,0.04,1.86
		c-0.15,0.98-0.45,1.8-0.92,2.46c-0.47,0.67-1.05,1.2-1.75,1.61c-0.7,0.41-1.48,0.71-2.35,0.89c-0.87,0.18-1.77,0.27-2.71,0.27
		c-0.96,0-1.86-0.08-2.71-0.24C636.84,82.69,636.13,82.44,635.54,82.12z"/>
	<path class="st0" d="M662.73,82.17c-1.37,0.62-3.09,0.93-5.15,0.93c-2.69,0-4.69-0.79-5.99-2.37c-1.31-1.58-1.76-3.69-1.37-6.32
		c0.42-2.8,1.62-5.07,3.61-6.82c1.99-1.74,4.36-2.61,7.13-2.61c1.71,0,3.12,0.21,4.23,0.65l-0.56,3.8c-1.07-0.7-2.35-1.05-3.85-1.05
		c-1.65,0-3.05,0.52-4.21,1.55c-1.16,1.04-1.88,2.44-2.14,4.2c-0.25,1.7,0.03,3.04,0.83,4.05c0.8,1.01,2.01,1.51,3.63,1.51
		c1.54,0,3-0.37,4.39-1.12L662.73,82.17z"/>
	<path class="st0" d="M674.09,65.26l-0.45,3.06h-1.47l-1.69,11.41h1.47l-0.45,3.05h-6.88l0.45-3.05h1.47l1.69-11.41h-1.47l0.45-3.06
		H674.09z"/>
	<path class="st0" d="M675.22,86.77h-3.13c2.96-3.18,4.74-6.74,5.32-10.69c0.58-3.92-0.13-7.52-2.14-10.82h3.15
		c2.17,3.14,2.96,6.74,2.36,10.82C680.17,80.28,678.31,83.84,675.22,86.77z"/>
</g>
<g>
	<path class="st0" d="M173.76,37.52h-18.12v15.23h-4.85V37.52h-18.04v-22.3h18.04V6.74h4.85v8.48h18.12V37.52z M150.79,32.85V19.86
		h-13.15v12.99H150.79z M168.88,32.85V19.86h-13.25v12.99H168.88z"/>
	<path class="st0" d="M206.18,14.71h-6.01v2.78h-4.67v-2.78h-11.19v-4.28h11.19V6.8h4.67v3.63h6.01V14.71z M230.46,39.5h-20.57v3.33
		h17.04v4.02h-17.04v5.85h-4.72v-5.85h-16.99v-4.02h16.99V39.5h-20.75v-4.1h20.75V22.67h-17.73v-4.02h40.08v4.02h-17.63v12.73h20.57
		V39.5z M202.64,30.97h-5.75v2.99h-4.48v-2.99h-6.75v-3.92h6.75v-2.73h4.48v2.73h5.75V30.97z M230.4,14.71h-11.19v2.78h-4.74v-2.78
		h-5.93v-4.28h5.93V6.8h4.74v3.63h11.19V14.71z M229.19,30.97h-6.75v2.99h-4.48v-2.99h-5.65v-3.92h5.65v-2.73h4.48v2.73h6.75V30.97z
		"/>
	<path class="st0" d="M265.28,27.6l-2.58,3.38c-2.47-1.91-5.75-3.94-9.82-6.08c-2.68,3.45-6.32,5.99-10.93,7.6l-2.83-3.53
		c5.58-2.1,9.15-4.56,10.7-7.4h-9.54v-4.02h10.54c0.22-1.07,0.33-2.47,0.33-4.2h-4.18c-1.12,1.2-2.39,2.33-3.81,3.38l-3.58-2.71
		c3.32-2.68,5.9-5.35,7.76-8.02l4.33,1.31c-0.41,0.86-0.83,1.55-1.26,2.06h13.15v3.97h-7.81l-0.33,4.2h9.36v4.02h-10.13
		C258.43,23.3,261.98,25.31,265.28,27.6z M280.69,52.93H276v-2.65h-26.39v2.53h-4.69V31.9h35.78V52.93z M276,39.14v-3.12h-26.39
		v3.12H276z M276,46.21v-3.2h-26.39v3.2H276z M284.61,28.58h-17.68V9.53h17.68V28.58z M280.07,24.43V13.75h-8.56v10.67H280.07z"/>
	<path class="st0" d="M303.73,44.43c-2.05,3.59-3.96,6.33-5.75,8.22l-3.87-2.99c1.92-1.79,3.84-4.25,5.75-7.4L303.73,44.43z
		 M340.26,35.56h-4.95V41h-37.38v-3.22h32.81v-2.22h-36.47v-3.32h36.47v-2.06h-32.81v-3.12h37.38v5.18h4.95V35.56z M315.97,24.14
		h-8.07v1.6h-4.38v-1.6h-8.71v-3.48h8.71v-2.47h-6.93v-3.22h6.93V12.7h-8.09V9.17h8.09V6.8h4.38v2.37h7.91v3.53h-7.91v2.27h6.91
		v3.22h-6.91v2.47h8.07V24.14z M330.69,46.05c-0.33,2.85-0.88,4.61-1.65,5.28c-0.77,0.67-1.38,1.08-1.83,1.24s-4.02,0.23-10.72,0.23
		c-3.44,0-5.61-0.07-6.51-0.21c-0.9-0.14-1.7-0.55-2.38-1.25c-0.69-0.7-1.03-1.72-1.03-3.08v-5.9h4.67v5.18
		c0,0.46,0.23,0.77,0.68,0.92c0.46,0.15,3.5,0.22,9.14,0.22c1.67,0,2.75-0.01,3.25-0.04c0.5-0.03,0.89-0.28,1.19-0.77
		c0.29-0.49,0.48-1.69,0.57-3.6L330.69,46.05z M323.89,45.15l-3.33,2.71c-2.32-1.55-4.45-2.66-6.39-3.33l3.45-2.81
		C320.05,42.74,322.13,43.88,323.89,45.15z M339.69,24.14h-9.05v1.55h-4.54v-1.55h-7.76v-3.48h7.76v-2.47h-6.55v-3.22h6.55V12.7
		h-7.71V9.17h7.71V6.8h4.54v2.37h8.4v3.53h-8.4v2.27h6.99v3.22h-6.99v2.47h9.05V24.14z M340.75,49.38l-3.66,3.02
		c-1.07-1.96-3.07-4.61-6.01-7.96l3.53-2.53C337.5,44.75,339.54,47.25,340.75,49.38z"/>
	<path class="st0" d="M396.56,47.86l-1.29,4.28c-3.61,0.15-7.04,0.23-10.29,0.23c-9.24,0-15.39-0.4-18.44-1.21
		c-3.05-0.81-5.86-2.29-8.42-4.46c-1.58,2.42-3.21,4.59-4.87,6.5l-3.69-2.86c4.62-5.26,7.54-10.34,8.76-15.26h-7.76v-4.43
		c2.9-2.9,5.19-5.89,6.86-8.97h-7.5v-4.43h12.63v4.43c-1.5,3.18-3.56,6.19-6.19,9.02h6.7v4.38c-0.67,2.75-1.63,5.41-2.89,7.99
		c1.32,1.43,3.1,2.56,5.32,3.42s5.04,1.33,8.46,1.43s7.02,0.15,10.84,0.15C388.83,48.06,392.75,47.99,396.56,47.86z M362.82,12.9
		l-3.27,3.17c-2.49-2.54-5.31-4.79-8.45-6.75l3.38-3.27C357.96,8.21,360.74,10.5,362.82,12.9z M396.02,42.52h-13.61v4.02h-4.54
		v-4.02h-13.89v-3.74h13.89v-2.5H366.4V20.87h11.47v-2.42h-6.55v-3.58h6.55v-2.11h4.54v2.11h6.65v3.58h-6.65v2.42h11.24v15.41
		h-11.24v2.5h13.61V42.52z M395.12,16.38h-4.54v-4.9h-20.75v4.9h-4.69V7.47h29.98V16.38z M377.88,26.95v-2.53h-6.99v2.53H377.88z
		 M377.88,32.75v-2.53h-6.99v2.53H377.88z M389.22,26.95v-2.53h-6.8v2.53H389.22z M389.22,32.75v-2.53h-6.8v2.53H389.22z"/>
	<path class="st0" d="M427.81,13.45h-13.69c-2.37,2.72-4.52,4.7-6.44,5.95l-2.83-3.58c3.37-2.34,6.36-5.52,8.97-9.56l4.59,1.06
		c-0.74,1.17-1.19,1.91-1.37,2.22h10.77V13.45z M451.39,45.43H439.3v7.37h-4.74v-7.37h-11.78c-0.57,1.87-1.65,3.4-3.26,4.58
		c-1.61,1.18-4.55,2.26-8.83,3.23l-3.02-3.97c5.58-0.96,8.89-2.24,9.92-3.84h-12.19v-3.92h13.09v-2.58h4.72v2.58h11.34v-2.58h4.74
		v2.58h12.09V45.43z M446.39,37.62h-36.16V18.7h36.16V37.62z M441.72,24.09v-1.88h-26.86v1.88H441.72z M441.72,29.17v-2.01h-26.86
		v2.01H441.72z M441.72,34.3v-2.17h-26.86v2.17H441.72z M422.57,17.23l-4.64,0.85l-2.06-3.17l4.79-0.8
		C421.1,14.65,421.73,15.69,422.57,17.23z M451.18,13.45h-16.42c-1.13,1.53-2.29,2.86-3.48,4l-4.43-2.01
		c2.42-2.01,4.71-5.03,6.86-9.07l4.64,0.9l-1.21,2.27h14.05V13.45z M444.28,17.08l-4.77,0.9c-0.27-0.62-0.9-1.64-1.88-3.07l4.85-0.8
		C443.35,15.28,443.95,16.27,444.28,17.08z"/>
	<path class="st0" d="M506.66,44.84H486.4v3.27c0,1.19-0.27,2.12-0.81,2.81c-0.54,0.69-1.23,1.16-2.06,1.4
		c-0.83,0.25-2.4,0.37-4.7,0.37c-1.07,0-2.28-0.03-3.63-0.1l-1.52-4.28c1.2,0.03,3.52,0.05,6.96,0.05c0.64,0,0.95-0.29,0.95-0.88
		v-2.66h-20.9V41.1h20.9v-2.27c2.61-0.53,5.04-1.22,7.29-2.06h-19.59V33.4h28.1v3.38c-2.87,1.36-6.53,2.7-10.98,4.02v0.31h20.26
		V44.84z M505.86,37.08h-4.43v-6.01h-35.31v5.95h-4.69v-9.67h3.27l-0.95-18.94c3.42-0.15,6.85-0.83,10.28-2.01l2.17,3.66
		c-2.46,0.77-5.06,1.31-7.81,1.62l0.15,2.81h6.88v3.43h-6.7l0.1,2.99h6.6v3.4h-6.39l0.15,3.04h29.08l0.1-3.04h-7.11v-3.4h7.29
		l0.16-2.99h-7.45V14.5h7.55l0.16-2.81h-8.07V8.01h12.66l-0.85,19.36h3.17V37.08z M489.83,7.95c-0.82,1.1-1.97,2.19-3.43,3.27
		c0.86,0.76,1.65,1.53,2.37,2.32l-2.81,2.47c-0.88-1.05-1.75-1.92-2.63-2.63c-1.82,1.08-3.6,1.98-5.34,2.68l-2.22-2.96
		c1.53-0.53,3.02-1.24,4.49-2.11c-0.48-0.45-1.45-1.17-2.91-2.17l2.55-2.58l3.53,2.53c1.15-0.84,2.06-1.67,2.73-2.47L489.83,7.95z
		 M490.09,24.58L487.28,27c-1.32-1.46-2.52-2.59-3.58-3.38c-1.84,1.17-3.63,2.16-5.39,2.96l-2.17-2.91
		c1.27-0.55,2.78-1.36,4.54-2.42c-0.89-0.79-2.05-1.58-3.48-2.37l2.55-2.6c0.93,0.55,2.29,1.49,4.1,2.81
		c1.44-1.22,2.43-2.16,2.96-2.81l3.22,1.91c-1.01,1.12-2.1,2.16-3.27,3.12C487.95,22.34,489.06,23.43,490.09,24.58z"/>
	<path class="st0" d="M561.34,15.92l-1.86,4.18c-4.31-1.07-8.68-2.51-13.09-4.33v1.96h-17.24v-2.06c-4.07,1.8-8.39,3.32-12.94,4.54
		l-2.32-3.81c10.4-2.68,18.07-6.11,23.02-10.28l5.16,1.26c-0.36,0.45-0.68,0.78-0.95,1.01C546,11.46,552.75,13.98,561.34,15.92z
		 M556.52,33.5h-37.68V19.86h37.68V33.5z M554.25,52.7h-4.64v-1.88h-23.64v1.88h-4.82V35.82h33.1V52.7z M535.3,29.81v-6.19h-11.88
		v6.19H535.3z M532.98,27.21l-3.33,2.11c-1.27-1.06-2.73-2.1-4.38-3.12l3.27-2.22C529.63,24.59,531.11,25.66,532.98,27.21z
		 M549.61,41.57V39.4h-23.64v2.17H549.61z M549.61,47.16v-2.32h-23.64v2.32H549.61z M542.7,14.06c-2.84-1.58-4.56-2.56-5.18-2.94
		c-1.44,1.08-3.09,2.06-4.95,2.94H542.7z M551.88,29.81v-6.19h-11.93v6.19H551.88z M549.87,26.1c-1.17,0.98-2.65,2-4.43,3.07
		l-3.27-2.22c2.06-1.31,3.51-2.26,4.33-2.86L549.87,26.1z"/>
</g>
<g>
	<path class="st1" d="M58.56,43.39l4.62-0.44c0.22,1.99,0.73,3.63,1.53,4.91c0.8,1.28,2.04,2.31,3.73,3.1
		c1.68,0.79,3.58,1.18,5.68,1.18c1.87,0,3.52-0.3,4.95-0.9c1.43-0.6,2.5-1.42,3.2-2.46c0.7-1.04,1.05-2.18,1.05-3.41
		c0-1.25-0.34-2.34-1.01-3.28c-0.67-0.93-1.79-1.72-3.33-2.35c-0.99-0.42-3.19-1.07-6.59-1.94c-3.4-0.88-5.78-1.71-7.15-2.49
		c-1.77-1-3.09-2.23-3.95-3.71c-0.87-1.48-1.3-3.13-1.3-4.96c0-2.01,0.53-3.89,1.59-5.64c1.06-1.75,2.61-3.08,4.65-3.98
		c2.04-0.91,4.3-1.36,6.79-1.36c2.74,0,5.16,0.48,7.26,1.43c2.1,0.95,3.71,2.35,4.84,4.2c1.13,1.85,1.73,3.94,1.82,6.28l-4.7,0.38
		c-0.25-2.52-1.11-4.42-2.56-5.71s-3.61-1.93-6.45-1.93c-2.96,0-5.12,0.58-6.48,1.75c-1.36,1.17-2.03,2.58-2.03,4.23
		c0,1.43,0.48,2.61,1.44,3.54c0.94,0.92,3.41,1.87,7.39,2.84c3.98,0.97,6.71,1.82,8.2,2.54c2.16,1.07,3.75,2.43,4.77,4.07
		c1.03,1.64,1.54,3.53,1.54,5.67c0,2.12-0.56,4.12-1.69,6c-1.13,1.88-2.75,3.34-4.86,4.38c-2.11,1.04-4.49,1.56-7.13,1.56
		c-3.35,0-6.16-0.53-8.42-1.58c-2.26-1.05-4.04-2.63-5.33-4.75C59.31,48.44,58.63,46.06,58.56,43.39z"/>
</g>
<g>
	<path class="st2" d="M87.31,6.9l2,27.83l-1.87,0.01c-2.53-8.32-6.13-14.3-10.77-17.95c-4.65-3.64-10.21-5.45-16.69-5.42
		c-5.44,0.02-10.34,1.43-14.72,4.2c-4.38,2.78-7.81,7.19-10.3,13.24c-2.49,6.05-3.71,13.57-3.67,22.54
		c0.03,7.41,1.25,13.82,3.65,19.25c2.4,5.42,5.99,9.58,10.78,12.45c4.78,2.88,10.24,4.3,16.36,4.27c5.31-0.02,10-1.18,14.06-3.48
		c4.06-2.29,8.5-6.83,13.34-13.62l1.88,1.2c-4.07,7.31-8.84,12.66-14.3,16.07c-5.46,3.41-11.96,5.13-19.48,5.16
		C44,92.74,33.47,87.76,25.97,77.72c-5.59-7.46-8.41-16.27-8.46-26.41c-0.04-8.17,1.76-15.69,5.39-22.55
		c3.63-6.86,8.65-12.19,15.06-15.98c6.4-3.79,13.41-5.71,21.02-5.74c5.92-0.03,11.76,1.4,17.53,4.27c1.7,0.88,2.91,1.31,3.63,1.31
		c1.09,0,2.03-0.39,2.83-1.16c1.04-1.09,1.78-2.6,2.21-4.54L87.31,6.9z"/>
</g>
<g>
	<g>
		<path class="st3" d="M124.28,83.35v2.15H90.56v-2.15h2.79c3.25,0,5.61-0.95,7.08-2.84c0.93-1.24,1.39-4.22,1.39-8.94V20.72
			c0-3.98-0.25-6.62-0.75-7.89c-0.39-0.97-1.18-1.8-2.38-2.5c-1.7-0.93-3.48-1.39-5.34-1.39h-2.79V6.79h33.72v2.15h-2.84
			c-3.21,0-5.55,0.95-7.02,2.84c-0.97,1.24-1.45,4.22-1.45,8.94v50.85c0,3.99,0.25,6.62,0.75,7.89c0.39,0.97,1.2,1.8,2.44,2.5
			c1.66,0.93,3.42,1.39,5.28,1.39H124.28z"/>
	</g>
</g>
<g>
	<path class="st4" d="M56.53,63.52l5.04-0.46c0.24,2.08,0.79,3.79,1.66,5.13c0.87,1.34,2.22,2.42,4.06,3.24
		c1.83,0.82,3.9,1.24,6.19,1.24c2.04,0,3.83-0.31,5.39-0.94s2.72-1.48,3.48-2.57c0.76-1.09,1.14-2.28,1.14-3.57
		c0-1.31-0.37-2.45-1.1-3.43c-0.73-0.98-1.94-1.8-3.63-2.46c-1.08-0.44-3.48-1.11-7.18-2.03s-6.3-1.79-7.79-2.6
		c-1.93-1.04-3.36-2.34-4.31-3.88c-0.95-1.54-1.42-3.27-1.42-5.19c0-2.1,0.58-4.07,1.73-5.9c1.16-1.83,2.84-3.22,5.06-4.16
		c2.22-0.95,4.69-1.42,7.4-1.42c2.99,0,5.63,0.5,7.91,1.49c2.28,0.99,4.04,2.46,5.27,4.39c1.23,1.93,1.89,4.12,1.98,6.57l-5.12,0.4
		c-0.28-2.63-1.21-4.62-2.79-5.97c-1.59-1.35-3.93-2.02-7.03-2.02c-3.23,0-5.58,0.61-7.06,1.83c-1.48,1.22-2.22,2.7-2.22,4.42
		c0,1.5,0.52,2.73,1.57,3.7c1.03,0.97,3.71,1.96,8.05,2.97c4.34,1.01,7.31,1.9,8.93,2.66c2.35,1.12,4.08,2.53,5.2,4.25
		c1.12,1.72,1.68,3.69,1.68,5.93c0,2.22-0.61,4.31-1.84,6.27c-1.23,1.96-3,3.49-5.3,4.58s-4.89,1.63-7.77,1.63
		c-3.65,0-6.71-0.55-9.18-1.65c-2.47-1.1-4.4-2.75-5.81-4.96C57.34,68.8,56.6,66.3,56.53,63.52z"/>
</g>
</svg>
